<mxfile host="app.diagrams.net" agent="Mozilla/5.0 (X11; Linux x86_64; rv:128.0) Gecko/20100101 Firefox/128.0" version="24.7.6">
  <diagram name="Page-1" id="1HDXXYpsf4qxFuLjd2vX">
    <mxGraphModel dx="3841" dy="929" grid="1" gridSize="10" guides="1" tooltips="1" connect="1" arrows="1" fold="1" page="1" pageScale="1" pageWidth="850" pageHeight="1100" math="0" shadow="0">
      <root>
        <mxCell id="0" />
        <mxCell id="1" parent="0" />
        <mxCell id="7L-9NUfplAu3C36GX-nJ-7" value="&lt;p style=&quot;margin:0px;margin-top:6px;text-align:center;&quot;&gt;&lt;b&gt;&amp;lt;&amp;lt;Component&amp;gt;&amp;gt;Backend&lt;/b&gt;&lt;/p&gt;&lt;hr size=&quot;1&quot; style=&quot;border-style:solid;&quot;&gt;&lt;p style=&quot;margin:0px;margin-left:8px;&quot;&gt;&lt;br&gt;&lt;/p&gt;" style="align=left;overflow=fill;html=1;dropTarget=0;whiteSpace=wrap;" vertex="1" parent="1">
          <mxGeometry x="-470" y="130" width="300" height="700" as="geometry" />
        </mxCell>
        <mxCell id="7L-9NUfplAu3C36GX-nJ-8" value="" style="shape=component;jettyWidth=8;jettyHeight=4;" vertex="1" parent="7L-9NUfplAu3C36GX-nJ-7">
          <mxGeometry x="1" width="20" height="20" relative="1" as="geometry">
            <mxPoint x="-24" y="4" as="offset" />
          </mxGeometry>
        </mxCell>
        <mxCell id="7L-9NUfplAu3C36GX-nJ-1" value="«components»&lt;br&gt;&lt;b&gt;Challenge Service&lt;/b&gt;" style="html=1;dropTarget=0;whiteSpace=wrap;" vertex="1" parent="1">
          <mxGeometry x="-405" y="170" width="170" height="60" as="geometry" />
        </mxCell>
        <mxCell id="7L-9NUfplAu3C36GX-nJ-2" value="" style="shape=module;jettyWidth=8;jettyHeight=4;" vertex="1" parent="7L-9NUfplAu3C36GX-nJ-1">
          <mxGeometry x="1" width="20" height="20" relative="1" as="geometry">
            <mxPoint x="-27" y="7" as="offset" />
          </mxGeometry>
        </mxCell>
        <mxCell id="7L-9NUfplAu3C36GX-nJ-5" value="«Annotation»&lt;br&gt;&lt;b&gt;Solution Service&lt;/b&gt;" style="html=1;dropTarget=0;whiteSpace=wrap;" vertex="1" parent="1">
          <mxGeometry x="-405" y="260" width="165" height="60" as="geometry" />
        </mxCell>
        <mxCell id="7L-9NUfplAu3C36GX-nJ-6" value="" style="shape=module;jettyWidth=8;jettyHeight=4;" vertex="1" parent="7L-9NUfplAu3C36GX-nJ-5">
          <mxGeometry x="1" width="20" height="20" relative="1" as="geometry">
            <mxPoint x="-27" y="7" as="offset" />
          </mxGeometry>
        </mxCell>
        <mxCell id="7L-9NUfplAu3C36GX-nJ-9" value="«components»&lt;br&gt;&lt;b&gt;Discussion Service&lt;br&gt;&lt;/b&gt;" style="html=1;dropTarget=0;whiteSpace=wrap;" vertex="1" parent="1">
          <mxGeometry x="-405" y="360" width="170" height="60" as="geometry" />
        </mxCell>
        <mxCell id="7L-9NUfplAu3C36GX-nJ-10" value="" style="shape=module;jettyWidth=8;jettyHeight=4;" vertex="1" parent="7L-9NUfplAu3C36GX-nJ-9">
          <mxGeometry x="1" width="20" height="20" relative="1" as="geometry">
            <mxPoint x="-27" y="7" as="offset" />
          </mxGeometry>
        </mxCell>
        <mxCell id="7L-9NUfplAu3C36GX-nJ-11" value="«components»&lt;br&gt;&lt;b&gt;Authentication Service&lt;/b&gt;" style="html=1;dropTarget=0;whiteSpace=wrap;" vertex="1" parent="1">
          <mxGeometry x="-405" y="450" width="170" height="60" as="geometry" />
        </mxCell>
        <mxCell id="7L-9NUfplAu3C36GX-nJ-12" value="" style="shape=module;jettyWidth=8;jettyHeight=4;" vertex="1" parent="7L-9NUfplAu3C36GX-nJ-11">
          <mxGeometry x="1" width="20" height="20" relative="1" as="geometry">
            <mxPoint x="-27" y="7" as="offset" />
          </mxGeometry>
        </mxCell>
        <mxCell id="7L-9NUfplAu3C36GX-nJ-13" value="«components»&lt;br&gt;&lt;b&gt;User Service&lt;/b&gt;" style="html=1;dropTarget=0;whiteSpace=wrap;" vertex="1" parent="1">
          <mxGeometry x="-405" y="550" width="170" height="60" as="geometry" />
        </mxCell>
        <mxCell id="7L-9NUfplAu3C36GX-nJ-14" value="" style="shape=module;jettyWidth=8;jettyHeight=4;" vertex="1" parent="7L-9NUfplAu3C36GX-nJ-13">
          <mxGeometry x="1" width="20" height="20" relative="1" as="geometry">
            <mxPoint x="-27" y="7" as="offset" />
          </mxGeometry>
        </mxCell>
        <mxCell id="7L-9NUfplAu3C36GX-nJ-15" value="«components»&lt;br&gt;&lt;b&gt;Leaderboard Service&lt;/b&gt;" style="html=1;dropTarget=0;whiteSpace=wrap;" vertex="1" parent="1">
          <mxGeometry x="-405" y="660" width="170" height="60" as="geometry" />
        </mxCell>
        <mxCell id="7L-9NUfplAu3C36GX-nJ-16" value="" style="shape=module;jettyWidth=8;jettyHeight=4;" vertex="1" parent="7L-9NUfplAu3C36GX-nJ-15">
          <mxGeometry x="1" width="20" height="20" relative="1" as="geometry">
            <mxPoint x="-27" y="7" as="offset" />
          </mxGeometry>
        </mxCell>
        <mxCell id="7L-9NUfplAu3C36GX-nJ-18" value="«components»&lt;br&gt;&lt;b&gt;Scoer Service&lt;/b&gt;" style="html=1;dropTarget=0;whiteSpace=wrap;" vertex="1" parent="1">
          <mxGeometry x="-407.5" y="750" width="170" height="60" as="geometry" />
        </mxCell>
        <mxCell id="7L-9NUfplAu3C36GX-nJ-19" value="" style="shape=module;jettyWidth=8;jettyHeight=4;" vertex="1" parent="7L-9NUfplAu3C36GX-nJ-18">
          <mxGeometry x="1" width="20" height="20" relative="1" as="geometry">
            <mxPoint x="-27" y="7" as="offset" />
          </mxGeometry>
        </mxCell>
        <mxCell id="7L-9NUfplAu3C36GX-nJ-21" value="&lt;p style=&quot;margin:0px;margin-top:6px;text-align:center;&quot;&gt;&lt;b&gt;&amp;lt;&amp;lt;Component&amp;gt;&amp;gt;Database&lt;/b&gt;&lt;/p&gt;&lt;hr size=&quot;1&quot; style=&quot;border-style:solid;&quot;&gt;&lt;p style=&quot;margin:0px;margin-left:8px;&quot;&gt;&lt;br&gt;&lt;/p&gt;" style="align=left;overflow=fill;html=1;dropTarget=0;whiteSpace=wrap;" vertex="1" parent="1">
          <mxGeometry x="-1040" y="230" width="300" height="160" as="geometry" />
        </mxCell>
        <mxCell id="7L-9NUfplAu3C36GX-nJ-22" value="" style="shape=component;jettyWidth=8;jettyHeight=4;" vertex="1" parent="7L-9NUfplAu3C36GX-nJ-21">
          <mxGeometry x="1" width="20" height="20" relative="1" as="geometry">
            <mxPoint x="-24" y="4" as="offset" />
          </mxGeometry>
        </mxCell>
        <mxCell id="7L-9NUfplAu3C36GX-nJ-31" value="&lt;p style=&quot;margin:0px;margin-top:6px;text-align:center;&quot;&gt;&lt;b&gt;&amp;lt;&amp;lt;Component&amp;gt;&amp;gt;Frontend&lt;br&gt;&lt;/b&gt;&lt;/p&gt;&lt;hr size=&quot;1&quot; style=&quot;border-style:solid;&quot;&gt;&lt;p style=&quot;margin:0px;margin-left:8px;&quot;&gt;&lt;br&gt;&lt;/p&gt;" style="align=left;overflow=fill;html=1;dropTarget=0;whiteSpace=wrap;" vertex="1" parent="1">
          <mxGeometry x="410" y="225" width="300" height="510" as="geometry" />
        </mxCell>
        <mxCell id="7L-9NUfplAu3C36GX-nJ-32" value="" style="shape=component;jettyWidth=8;jettyHeight=4;" vertex="1" parent="7L-9NUfplAu3C36GX-nJ-31">
          <mxGeometry x="1" width="20" height="20" relative="1" as="geometry">
            <mxPoint x="-24" y="4" as="offset" />
          </mxGeometry>
        </mxCell>
        <mxCell id="7L-9NUfplAu3C36GX-nJ-35" value="«components»&lt;br&gt;&lt;b&gt;Login Page&lt;br&gt;&lt;/b&gt;" style="html=1;dropTarget=0;whiteSpace=wrap;" vertex="1" parent="1">
          <mxGeometry x="475" y="265" width="170" height="60" as="geometry" />
        </mxCell>
        <mxCell id="7L-9NUfplAu3C36GX-nJ-36" value="" style="shape=module;jettyWidth=8;jettyHeight=4;" vertex="1" parent="7L-9NUfplAu3C36GX-nJ-35">
          <mxGeometry x="1" width="20" height="20" relative="1" as="geometry">
            <mxPoint x="-27" y="7" as="offset" />
          </mxGeometry>
        </mxCell>
        <mxCell id="7L-9NUfplAu3C36GX-nJ-37" value="«components»&lt;br&gt;&lt;b&gt;Leaderboard Page&lt;br&gt;&lt;/b&gt;" style="html=1;dropTarget=0;whiteSpace=wrap;" vertex="1" parent="1">
          <mxGeometry x="475" y="345" width="170" height="60" as="geometry" />
        </mxCell>
        <mxCell id="7L-9NUfplAu3C36GX-nJ-38" value="" style="shape=module;jettyWidth=8;jettyHeight=4;" vertex="1" parent="7L-9NUfplAu3C36GX-nJ-37">
          <mxGeometry x="1" width="20" height="20" relative="1" as="geometry">
            <mxPoint x="-27" y="7" as="offset" />
          </mxGeometry>
        </mxCell>
        <mxCell id="7L-9NUfplAu3C36GX-nJ-39" value="«components»&lt;br&gt;&lt;b&gt;Discussion Page&lt;br&gt;&lt;/b&gt;" style="html=1;dropTarget=0;whiteSpace=wrap;" vertex="1" parent="1">
          <mxGeometry x="475" y="425" width="170" height="60" as="geometry" />
        </mxCell>
        <mxCell id="7L-9NUfplAu3C36GX-nJ-40" value="" style="shape=module;jettyWidth=8;jettyHeight=4;" vertex="1" parent="7L-9NUfplAu3C36GX-nJ-39">
          <mxGeometry x="1" width="20" height="20" relative="1" as="geometry">
            <mxPoint x="-27" y="7" as="offset" />
          </mxGeometry>
        </mxCell>
        <mxCell id="7L-9NUfplAu3C36GX-nJ-41" value="«components»&lt;br&gt;&lt;b&gt;Challenge Page&lt;br&gt;&lt;/b&gt;" style="html=1;dropTarget=0;whiteSpace=wrap;" vertex="1" parent="1">
          <mxGeometry x="475" y="505" width="170" height="60" as="geometry" />
        </mxCell>
        <mxCell id="7L-9NUfplAu3C36GX-nJ-42" value="" style="shape=module;jettyWidth=8;jettyHeight=4;" vertex="1" parent="7L-9NUfplAu3C36GX-nJ-41">
          <mxGeometry x="1" width="20" height="20" relative="1" as="geometry">
            <mxPoint x="-27" y="7" as="offset" />
          </mxGeometry>
        </mxCell>
        <mxCell id="7L-9NUfplAu3C36GX-nJ-43" value="«components»&lt;br&gt;&lt;b&gt;Profile Page&lt;br&gt;&lt;/b&gt;" style="html=1;dropTarget=0;whiteSpace=wrap;" vertex="1" parent="1">
          <mxGeometry x="480" y="585" width="170" height="60" as="geometry" />
        </mxCell>
        <mxCell id="7L-9NUfplAu3C36GX-nJ-44" value="" style="shape=module;jettyWidth=8;jettyHeight=4;" vertex="1" parent="7L-9NUfplAu3C36GX-nJ-43">
          <mxGeometry x="1" width="20" height="20" relative="1" as="geometry">
            <mxPoint x="-27" y="7" as="offset" />
          </mxGeometry>
        </mxCell>
        <mxCell id="7L-9NUfplAu3C36GX-nJ-45" value="«components»&lt;br&gt;&lt;b&gt;Profile Page&lt;br&gt;&lt;/b&gt;" style="html=1;dropTarget=0;whiteSpace=wrap;" vertex="1" parent="1">
          <mxGeometry x="480" y="665" width="170" height="60" as="geometry" />
        </mxCell>
        <mxCell id="7L-9NUfplAu3C36GX-nJ-46" value="" style="shape=module;jettyWidth=8;jettyHeight=4;" vertex="1" parent="7L-9NUfplAu3C36GX-nJ-45">
          <mxGeometry x="1" width="20" height="20" relative="1" as="geometry">
            <mxPoint x="-27" y="7" as="offset" />
          </mxGeometry>
        </mxCell>
        <mxCell id="7L-9NUfplAu3C36GX-nJ-52" value="" style="ellipse;whiteSpace=wrap;html=1;align=center;aspect=fixed;fillColor=none;strokeColor=none;resizable=0;perimeter=centerPerimeter;rotatable=0;allowArrows=0;points=[];outlineConnect=1;" vertex="1" parent="1">
          <mxGeometry x="450" y="530" width="10" height="10" as="geometry" />
        </mxCell>
        <mxCell id="7L-9NUfplAu3C36GX-nJ-59" value="" style="ellipse;whiteSpace=wrap;html=1;align=center;aspect=fixed;fillColor=none;strokeColor=none;resizable=0;perimeter=centerPerimeter;rotatable=0;allowArrows=0;points=[];outlineConnect=1;" vertex="1" parent="1">
          <mxGeometry x="360" y="315" width="10" height="10" as="geometry" />
        </mxCell>
        <mxCell id="7L-9NUfplAu3C36GX-nJ-65" value="" style="ellipse;whiteSpace=wrap;html=1;align=center;aspect=fixed;fillColor=none;strokeColor=none;resizable=0;perimeter=centerPerimeter;rotatable=0;allowArrows=0;points=[];outlineConnect=1;" vertex="1" parent="1">
          <mxGeometry x="450" y="295" width="10" height="10" as="geometry" />
        </mxCell>
        <mxCell id="7L-9NUfplAu3C36GX-nJ-67" value="Object" style="html=1;whiteSpace=wrap;" vertex="1" parent="1">
          <mxGeometry x="-430" y="40" width="110" height="50" as="geometry" />
        </mxCell>
        <mxCell id="7L-9NUfplAu3C36GX-nJ-71" value="" style="rounded=0;orthogonalLoop=1;jettySize=auto;html=1;endArrow=halfCircle;endFill=0;endSize=6;strokeWidth=1;sketch=0;exitX=0;exitY=0.5;exitDx=0;exitDy=0;" edge="1" target="7L-9NUfplAu3C36GX-nJ-73" parent="1" source="7L-9NUfplAu3C36GX-nJ-1">
          <mxGeometry relative="1" as="geometry">
            <mxPoint x="-590" y="300" as="sourcePoint" />
          </mxGeometry>
        </mxCell>
        <mxCell id="7L-9NUfplAu3C36GX-nJ-72" value="" style="rounded=0;orthogonalLoop=1;jettySize=auto;html=1;endArrow=oval;endFill=0;sketch=0;sourcePerimeterSpacing=0;targetPerimeterSpacing=0;endSize=10;" edge="1" target="7L-9NUfplAu3C36GX-nJ-73" parent="1">
          <mxGeometry relative="1" as="geometry">
            <mxPoint x="-800" y="315" as="sourcePoint" />
          </mxGeometry>
        </mxCell>
        <mxCell id="7L-9NUfplAu3C36GX-nJ-73" value="" style="ellipse;whiteSpace=wrap;html=1;align=center;aspect=fixed;fillColor=none;strokeColor=none;resizable=0;perimeter=centerPerimeter;rotatable=0;allowArrows=0;points=[];outlineConnect=1;" vertex="1" parent="1">
          <mxGeometry x="-785" y="310" width="10" height="10" as="geometry" />
        </mxCell>
        <mxCell id="7L-9NUfplAu3C36GX-nJ-74" value="" style="rounded=0;orthogonalLoop=1;jettySize=auto;html=1;endArrow=halfCircle;endFill=0;endSize=6;strokeWidth=1;sketch=0;" edge="1" target="7L-9NUfplAu3C36GX-nJ-76" parent="1">
          <mxGeometry relative="1" as="geometry">
            <mxPoint x="-590" y="350" as="sourcePoint" />
          </mxGeometry>
        </mxCell>
        <mxCell id="7L-9NUfplAu3C36GX-nJ-75" value="" style="rounded=0;orthogonalLoop=1;jettySize=auto;html=1;endArrow=oval;endFill=0;sketch=0;sourcePerimeterSpacing=0;targetPerimeterSpacing=0;endSize=10;" edge="1" target="7L-9NUfplAu3C36GX-nJ-76" parent="1">
          <mxGeometry relative="1" as="geometry">
            <mxPoint x="-800" y="410" as="sourcePoint" />
          </mxGeometry>
        </mxCell>
        <mxCell id="7L-9NUfplAu3C36GX-nJ-76" value="" style="ellipse;whiteSpace=wrap;html=1;align=center;aspect=fixed;fillColor=none;strokeColor=none;resizable=0;perimeter=centerPerimeter;rotatable=0;allowArrows=0;points=[];outlineConnect=1;" vertex="1" parent="1">
          <mxGeometry x="-785" y="405" width="10" height="10" as="geometry" />
        </mxCell>
        <mxCell id="7L-9NUfplAu3C36GX-nJ-77" value="" style="rounded=0;orthogonalLoop=1;jettySize=auto;html=1;endArrow=halfCircle;endFill=0;endSize=6;strokeWidth=1;sketch=0;" edge="1" target="7L-9NUfplAu3C36GX-nJ-79" parent="1">
          <mxGeometry relative="1" as="geometry">
            <mxPoint x="-590" y="450" as="sourcePoint" />
          </mxGeometry>
        </mxCell>
        <mxCell id="7L-9NUfplAu3C36GX-nJ-78" value="" style="rounded=0;orthogonalLoop=1;jettySize=auto;html=1;endArrow=oval;endFill=0;sketch=0;sourcePerimeterSpacing=0;targetPerimeterSpacing=0;endSize=10;" edge="1" target="7L-9NUfplAu3C36GX-nJ-79" parent="1">
          <mxGeometry relative="1" as="geometry">
            <mxPoint x="-800" y="510" as="sourcePoint" />
          </mxGeometry>
        </mxCell>
        <mxCell id="7L-9NUfplAu3C36GX-nJ-79" value="" style="ellipse;whiteSpace=wrap;html=1;align=center;aspect=fixed;fillColor=none;strokeColor=none;resizable=0;perimeter=centerPerimeter;rotatable=0;allowArrows=0;points=[];outlineConnect=1;" vertex="1" parent="1">
          <mxGeometry x="-785" y="505" width="10" height="10" as="geometry" />
        </mxCell>
        <mxCell id="7L-9NUfplAu3C36GX-nJ-80" value="" style="rounded=0;orthogonalLoop=1;jettySize=auto;html=1;endArrow=halfCircle;endFill=0;endSize=6;strokeWidth=1;sketch=0;" edge="1" target="7L-9NUfplAu3C36GX-nJ-82" parent="1">
          <mxGeometry relative="1" as="geometry">
            <mxPoint x="-230" y="605" as="sourcePoint" />
          </mxGeometry>
        </mxCell>
        <mxCell id="7L-9NUfplAu3C36GX-nJ-81" value="" style="rounded=0;orthogonalLoop=1;jettySize=auto;html=1;endArrow=oval;endFill=0;sketch=0;sourcePerimeterSpacing=0;targetPerimeterSpacing=0;endSize=10;" edge="1" target="7L-9NUfplAu3C36GX-nJ-82" parent="1">
          <mxGeometry relative="1" as="geometry">
            <mxPoint x="-270" y="605" as="sourcePoint" />
          </mxGeometry>
        </mxCell>
        <mxCell id="7L-9NUfplAu3C36GX-nJ-82" value="" style="ellipse;whiteSpace=wrap;html=1;align=center;aspect=fixed;fillColor=none;strokeColor=none;resizable=0;perimeter=centerPerimeter;rotatable=0;allowArrows=0;points=[];outlineConnect=1;" vertex="1" parent="1">
          <mxGeometry x="-255" y="600" width="10" height="10" as="geometry" />
        </mxCell>
        <mxCell id="7L-9NUfplAu3C36GX-nJ-83" value="" style="rounded=0;orthogonalLoop=1;jettySize=auto;html=1;endArrow=halfCircle;endFill=0;endSize=6;strokeWidth=1;sketch=0;" edge="1" target="7L-9NUfplAu3C36GX-nJ-85" parent="1">
          <mxGeometry relative="1" as="geometry">
            <mxPoint x="-407" y="295" as="sourcePoint" />
          </mxGeometry>
        </mxCell>
        <mxCell id="7L-9NUfplAu3C36GX-nJ-84" value="" style="rounded=0;orthogonalLoop=1;jettySize=auto;html=1;endArrow=oval;endFill=0;sketch=0;sourcePerimeterSpacing=0;targetPerimeterSpacing=0;endSize=10;" edge="1" target="7L-9NUfplAu3C36GX-nJ-85" parent="1">
          <mxGeometry relative="1" as="geometry">
            <mxPoint x="-590" y="350" as="sourcePoint" />
          </mxGeometry>
        </mxCell>
        <mxCell id="7L-9NUfplAu3C36GX-nJ-85" value="" style="ellipse;whiteSpace=wrap;html=1;align=center;aspect=fixed;fillColor=none;strokeColor=none;resizable=0;perimeter=centerPerimeter;rotatable=0;allowArrows=0;points=[];outlineConnect=1;" vertex="1" parent="1">
          <mxGeometry x="-432" y="290" width="10" height="10" as="geometry" />
        </mxCell>
        <mxCell id="7L-9NUfplAu3C36GX-nJ-86" value="" style="rounded=0;orthogonalLoop=1;jettySize=auto;html=1;endArrow=halfCircle;endFill=0;endSize=6;strokeWidth=1;sketch=0;" edge="1" target="7L-9NUfplAu3C36GX-nJ-88" parent="1">
          <mxGeometry relative="1" as="geometry">
            <mxPoint x="-405" y="390" as="sourcePoint" />
          </mxGeometry>
        </mxCell>
        <mxCell id="7L-9NUfplAu3C36GX-nJ-87" value="" style="rounded=0;orthogonalLoop=1;jettySize=auto;html=1;endArrow=oval;endFill=0;sketch=0;sourcePerimeterSpacing=0;targetPerimeterSpacing=0;endSize=10;" edge="1" target="7L-9NUfplAu3C36GX-nJ-88" parent="1">
          <mxGeometry relative="1" as="geometry">
            <mxPoint x="-590" y="450" as="sourcePoint" />
          </mxGeometry>
        </mxCell>
        <mxCell id="7L-9NUfplAu3C36GX-nJ-88" value="" style="ellipse;whiteSpace=wrap;html=1;align=center;aspect=fixed;fillColor=none;strokeColor=none;resizable=0;perimeter=centerPerimeter;rotatable=0;allowArrows=0;points=[];outlineConnect=1;" vertex="1" parent="1">
          <mxGeometry x="-430" y="385" width="10" height="10" as="geometry" />
        </mxCell>
        <mxCell id="7L-9NUfplAu3C36GX-nJ-89" value="«Annotation»&lt;br&gt;&lt;b&gt;Website&lt;/b&gt;" style="html=1;dropTarget=0;whiteSpace=wrap;" vertex="1" parent="1">
          <mxGeometry x="-980" y="275" width="180" height="90" as="geometry" />
        </mxCell>
        <mxCell id="7L-9NUfplAu3C36GX-nJ-90" value="" style="shape=module;jettyWidth=8;jettyHeight=4;" vertex="1" parent="7L-9NUfplAu3C36GX-nJ-89">
          <mxGeometry x="1" width="20" height="20" relative="1" as="geometry">
            <mxPoint x="-27" y="7" as="offset" />
          </mxGeometry>
        </mxCell>
      </root>
    </mxGraphModel>
  </diagram>
</mxfile>
